<svg width="33" height="33" viewBox="0 0 33 33" fill="none" xmlns="http://www.w3.org/2000/svg">
<g clip-path="url(#clip0_641_291)">
<path d="M31.5 12H29.2311C29.0724 11.5512 28.8896 11.1107 28.6835 10.6804L30.2885 9.0753C30.8743 8.4896 30.8743 7.5398 30.2885 6.954L26.046 2.7114C25.4603 2.1256 24.5105 2.1256 23.9247 2.7114L22.3196 4.3164C21.8893 4.1104 21.4489 3.9277 21 3.7688V1.5C21 0.6716 20.3284 0 19.5 0H13.5C12.6716 0 12 0.6716 12 1.5V3.7689C11.5512 3.9277 11.1107 4.1104 10.6805 4.3164L9.0754 2.7114C8.4897 2.1255 7.5399 2.1256 6.9541 2.7114L2.7114 6.954C2.4301 7.2353 2.272 7.6168 2.272 8.0146C2.272 8.4124 2.43 8.794 2.7114 9.0752L4.3165 10.6803C4.1105 11.1107 3.9277 11.5511 3.7689 11.9999H1.5C0.6716 11.9999 0 12.6715 0 13.4999V19.4999C0 20.3283 0.6716 20.9999 1.5 20.9999H3.7689C3.9277 21.4487 4.1105 21.8892 4.3165 22.3195L2.7114 23.9246C2.4301 24.2059 2.272 24.5874 2.272 24.9852C2.272 25.383 2.43 25.7646 2.7114 26.0458L6.9542 30.2884C7.54 30.8743 8.4897 30.8741 9.0755 30.2884L10.6806 28.6834C11.1108 28.8894 11.5512 29.0721 12 29.2309V31.5C12 32.3284 12.6716 33 13.5 33H19.5C20.3284 33 21 32.3284 21 31.5V29.2311C21.4489 29.0722 21.8894 28.8895 22.3196 28.6835L23.9247 30.2885C24.5104 30.8742 25.4602 30.8742 26.046 30.2885L30.2886 26.0459C30.8744 25.4602 30.8744 24.5104 30.2886 23.9246L28.6836 22.3195C28.8897 21.8891 29.0725 21.4487 29.2312 20.9999H31.5C32.3284 20.9999 33 20.3283 33 19.4999V13.4999C33 12.6716 32.3284 12 31.5 12ZM30 18H28.1219C27.4374 18 26.8397 18.4634 26.6692 19.1263C26.4256 20.0735 26.0479 20.9839 25.5465 21.8323C25.1983 22.4217 25.2932 23.1719 25.7773 23.656L27.1067 24.9854L24.9854 27.1067L23.656 25.7773C23.172 25.2933 22.4218 25.1985 21.8323 25.5465C20.9844 26.0476 20.0739 26.4253 19.1261 26.6693C18.4633 26.8399 18 27.4376 18 28.1219V30H15V28.1219C15 27.4375 14.5367 26.8399 13.8739 26.6693C12.9263 26.4253 12.016 26.0476 11.1679 25.5465C10.5784 25.1983 9.8283 25.2932 9.3442 25.7773L8.0148 27.1067L5.8933 24.9854L7.2227 23.656C7.7068 23.172 7.8017 22.4217 7.4535 21.8324C6.9524 20.9843 6.5746 20.0737 6.3307 19.1261C6.1602 18.4633 5.5625 18 4.8781 18H3V15H4.8781C5.5625 15 6.1601 14.5367 6.3307 13.8739C6.5746 12.9263 6.9524 12.0158 7.4535 11.1676C7.8017 10.5782 7.7068 9.8279 7.2227 9.344L5.8934 8.0146L8.0148 5.8933L9.3442 7.2227C9.8282 7.7067 10.5787 7.8017 11.1679 7.4535C12.0158 6.9524 12.9263 6.5747 13.874 6.3307C14.5367 6.1602 15 5.5625 15 4.8781V3H18V4.8781C18 5.5625 18.4633 6.1601 19.1261 6.3307C20.0739 6.5747 20.9844 6.9524 21.8323 7.4535C22.4216 7.8015 23.1719 7.7068 23.656 7.2227L24.9854 5.8933L27.1067 8.0146L25.7772 9.344C25.2931 9.8281 25.1982 10.5784 25.5464 11.1677C26.0478 12.016 26.4254 12.9265 26.6691 13.8737C26.8396 14.5366 27.4374 15 28.1218 15H30V18Z" fill="#E8490E"/>
<path d="M20.3949 15.228L15.5949 12.228C15.1325 11.9389 14.5496 11.9237 14.0727 12.188C13.5957 12.4524 13.2998 12.9547 13.2998 13.5V19.5C13.2998 20.0453 13.5957 20.5477 14.0727 20.812C14.2993 20.9375 14.5497 21 14.7998 21C15.0762 21 15.3521 20.9237 15.5948 20.772L20.3948 17.772C20.8334 17.4979 21.0998 17.0172 21.0998 16.5C21.0998 15.9828 20.8335 15.5021 20.3949 15.228Z" fill="#E8490E"/>
</g>
<defs>
<clipPath id="clip0_641_291">
<rect width="33" height="33" fill="white"/>
</clipPath>
</defs>
</svg>
