<svg width="33" height="33" viewBox="0 0 33 33" fill="none" xmlns="http://www.w3.org/2000/svg">
<path fill-rule="evenodd" clip-rule="evenodd" d="M8.25 2.0625C5.4145 2.0625 3.09375 4.38325 3.09375 7.21875V29.9062C3.09383 30.1275 3.16509 30.3429 3.29699 30.5206C3.42889 30.6983 3.61444 30.8288 3.82624 30.893C4.03803 30.9571 4.26483 30.9514 4.47314 30.8767C4.68145 30.8021 4.86022 30.6623 4.98303 30.4783L6.1875 28.6716L7.39197 30.4783C7.48616 30.6195 7.61375 30.7353 7.76343 30.8154C7.91311 30.8955 8.08024 30.9374 8.25 30.9374C8.41976 30.9374 8.58689 30.8955 8.73657 30.8154C8.88625 30.7353 9.01384 30.6195 9.10803 30.4783L10.3125 28.6716L11.517 30.4783C11.6112 30.6195 11.7388 30.7353 11.8884 30.8154C12.0381 30.8955 12.2052 30.9374 12.375 30.9374C12.5448 30.9374 12.7119 30.8955 12.8616 30.8154C13.0112 30.7353 13.1388 30.6195 13.233 30.4783L14.4375 28.6716L15.642 30.4783C15.7362 30.6195 15.8638 30.7353 16.0134 30.8154C16.1631 30.8955 16.3302 30.9374 16.5 30.9374C16.6698 30.9374 16.8369 30.8955 16.9866 30.8154C17.1362 30.7353 17.2638 30.6195 17.358 30.4783L18.5625 28.6716L19.767 30.4783C19.8898 30.6623 20.0686 30.8021 20.2769 30.8767C20.4852 30.9514 20.712 30.9571 20.9238 30.893C21.1356 30.8288 21.3211 30.6983 21.453 30.5206C21.5849 30.3429 21.6562 30.1275 21.6562 29.9062V17.5312H28.875C29.1485 17.5312 29.4108 17.4226 29.6042 17.2292C29.7976 17.0358 29.9062 16.7735 29.9062 16.5V7.21875C29.9062 4.38325 27.5855 2.0625 24.75 2.0625H8.25ZM8.25 4.125H20.6331C19.9814 4.98848 19.5938 6.06023 19.5938 7.21875V8.25V16.5V26.5003L19.4205 26.2405C19.3263 26.0992 19.1987 25.9834 19.0491 25.9034C18.8994 25.8233 18.7323 25.7814 18.5625 25.7814C18.3927 25.7814 18.2256 25.8233 18.0759 25.9034C17.9263 25.9834 17.7987 26.0992 17.7045 26.2405L16.5 28.0472L15.2955 26.2405C15.2013 26.0992 15.0737 25.9834 14.9241 25.9034C14.7744 25.8233 14.6073 25.7814 14.4375 25.7814C14.2677 25.7814 14.1006 25.8233 13.9509 25.9034C13.8013 25.9834 13.6737 26.0992 13.5795 26.2405L12.375 28.0472L11.1705 26.2405C11.0763 26.0992 10.9487 25.9834 10.7991 25.9034C10.6494 25.8233 10.4823 25.7814 10.3125 25.7814C10.1427 25.7814 9.97561 25.8233 9.82593 25.9034C9.67625 25.9834 9.54866 26.0992 9.45447 26.2405L8.25 28.0472L7.04553 26.2405C6.95134 26.0992 6.82375 25.9834 6.67407 25.9034C6.52439 25.8233 6.35726 25.7814 6.1875 25.7814C6.01774 25.7814 5.85061 25.8233 5.70093 25.9034C5.55125 25.9834 5.42366 26.0992 5.32947 26.2405L5.15625 26.5003V7.21875C5.15625 5.4979 6.52916 4.125 8.25 4.125ZM24.75 4.125C26.4708 4.125 27.8438 5.4979 27.8438 7.21875V15.4688H21.6562V8.25V7.21875C21.6562 5.4979 23.0292 4.125 24.75 4.125Z" fill="#E8490E"/>
<path fill-rule="evenodd" clip-rule="evenodd" d="M8.25 14.4375C7.9765 14.4375 7.71419 14.5461 7.5208 14.7395C7.3274 14.9329 7.21875 15.1952 7.21875 15.4688C7.21875 15.7423 7.3274 16.0046 7.5208 16.198C7.71419 16.3914 7.9765 16.5 8.25 16.5H12.375C12.6485 16.5 12.9108 16.3914 13.1042 16.198C13.2976 16.0046 13.4062 15.7423 13.4062 15.4688C13.4062 15.1952 13.2976 14.9329 13.1042 14.7395C12.9108 14.5461 12.6485 14.4375 12.375 14.4375H8.25Z" fill="#E8490E"/>
<path fill-rule="evenodd" clip-rule="evenodd" d="M8.25 17.5312C7.9765 17.5312 7.71419 17.6399 7.5208 17.8333C7.3274 18.0267 7.21875 18.289 7.21875 18.5625C7.21875 18.836 7.3274 19.0983 7.5208 19.2917C7.71419 19.4851 7.9765 19.5938 8.25 19.5938H16.5C16.7735 19.5938 17.0358 19.4851 17.2292 19.2917C17.4226 19.0983 17.5312 18.836 17.5312 18.5625C17.5312 18.289 17.4226 18.0267 17.2292 17.8333C17.0358 17.6399 16.7735 17.5312 16.5 17.5312H8.25Z" fill="#E8490E"/>
<path fill-rule="evenodd" clip-rule="evenodd" d="M8.25 20.625C7.9765 20.625 7.71419 20.7336 7.5208 20.927C7.3274 21.1204 7.21875 21.3827 7.21875 21.6562C7.21875 21.9298 7.3274 22.1921 7.5208 22.3855C7.71419 22.5789 7.9765 22.6875 8.25 22.6875H16.5C16.7735 22.6875 17.0358 22.5789 17.2292 22.3855C17.4226 22.1921 17.5312 21.9298 17.5312 21.6562C17.5312 21.3827 17.4226 21.1204 17.2292 20.927C17.0358 20.7336 16.7735 20.625 16.5 20.625H8.25Z" fill="#E8490E"/>
<path fill-rule="evenodd" clip-rule="evenodd" d="M8.25 7.21875C7.9765 7.21878 7.71422 7.32744 7.52083 7.52083C7.32744 7.71422 7.21878 7.9765 7.21875 8.25V12.375C7.21878 12.6485 7.32744 12.9108 7.52083 13.1042C7.71422 13.2976 7.9765 13.4062 8.25 13.4062H12.375C12.6485 13.4062 12.9108 13.2976 13.1042 13.1042C13.2976 12.9108 13.4062 12.6485 13.4062 12.375V8.25C13.4062 7.9765 13.2976 7.71422 13.1042 7.52083C12.9108 7.32744 12.6485 7.21878 12.375 7.21875H8.25ZM9.28125 9.28125H11.3438V11.3438H9.28125V9.28125Z" fill="#E8490E"/>
</svg>
