<svg width="33" height="33" viewBox="0 0 33 33" fill="none" xmlns="http://www.w3.org/2000/svg">
<path d="M16.5 0C7.392 0 0 7.392 0 16.5C0 25.608 7.392 33 16.5 33C25.608 33 33 25.608 33 16.5C33 7.392 25.608 0 16.5 0ZM11.8469 19.965C12.3089 20.4931 12.2429 21.3181 11.715 21.7801C11.187 22.242 10.362 22.176 9.89998 21.6482L6.17092 17.325C5.74185 16.8301 5.74185 16.137 6.17092 15.642L9.86686 11.3191C10.098 11.0222 10.4607 10.8571 10.8569 10.8571C11.1539 10.8571 11.4508 10.9561 11.6819 11.1541C11.946 11.3852 12.111 11.6821 12.111 12.0451C12.1439 12.3752 12.012 12.7051 11.814 12.9691L8.84393 16.5L11.8469 19.965ZM19.5359 12.705L15.84 21.318C15.576 21.9451 14.7839 22.2749 14.1571 21.9779C13.827 21.846 13.5961 21.582 13.4639 21.2848C13.332 20.9547 13.332 20.6249 13.4639 20.2948L17.1599 11.6818C17.3578 11.2198 17.8198 10.8897 18.3479 10.8897C18.5129 10.8897 18.678 10.9226 18.8428 10.9887C19.1729 11.1206 19.4038 11.3846 19.5359 11.6818C19.668 12.0448 19.6681 12.3749 19.5359 12.705ZM26.8289 17.3249L23.1328 21.6478C22.6708 22.1759 21.8458 22.2417 21.3177 21.7797C20.7897 21.3177 20.7238 20.4927 21.1858 19.9647L24.1559 16.4998L21.1529 13.0348C20.9218 12.7708 20.8228 12.4409 20.8559 12.1108C20.8888 11.7807 21.0539 11.4508 21.285 11.2197C21.5161 11.0218 21.813 10.9228 22.11 10.9228C22.473 10.9228 22.836 11.0878 23.1 11.3848L26.8291 15.7077C27.2577 16.1368 27.2578 16.8629 26.8289 17.3249Z" fill="#E8490E"/>
</svg>
